<?xml version="1.0" standalone="no"?>
<!DOCTYPE svg PUBLIC "-//W3C//DTD SVG 20010904//EN"
 "http://www.w3.org/TR/2001/REC-SVG-20010904/DTD/svg10.dtd">
<svg version="1.0" xmlns="http://www.w3.org/2000/svg"
 width="1536.000000pt" height="1024.000000pt" viewBox="0 0 1536.000000 1024.000000"
 preserveAspectRatio="xMidYMid meet">

<g transform="translate(0.000000,1024.000000) scale(0.100000,-0.100000)"
fill="#000000" stroke="none">
<path d="M8105 8040 c-236 -33 -423 -121 -551 -256 l-61 -65 -369 -163 c-203
-90 -423 -188 -490 -218 l-121 -55 -144 -6 c-347 -13 -595 -112 -746 -299 -33
-40 -77 -83 -99 -95 -41 -23 -318 -150 -759 -348 -407 -182 -415 -187 -470
-286 l-30 -54 0 -1055 0 -1055 22 -41 c33 -63 96 -111 249 -193 171 -92 669
-361 899 -486 94 -51 285 -154 425 -230 140 -76 455 -247 700 -380 587 -320
685 -370 749 -389 63 -18 188 -21 246 -5 47 13 27 3 685 339 630 321 1037 528
1535 780 1182 599 1549 789 1589 822 20 17 47 49 59 71 l22 42 3 925 c2 930
-1 1048 -33 1110 -22 43 -74 99 -115 125 -19 12 -219 116 -444 230 -349 177
-421 217 -484 271 -116 99 -273 170 -458 208 -57 11 -156 57 -481 220 -408
204 -411 206 -501 288 -137 127 -271 196 -447 233 -94 19 -295 27 -380 15z
m395 -150 c167 -48 309 -149 365 -259 l26 -53 -3 -202 c-3 -184 -5 -204 -25
-242 -36 -67 -125 -136 -225 -174 -29 -11 -56 -20 -60 -20 -5 0 -8 82 -8 183
l0 183 33 12 c42 15 45 15 50 0 2 -7 3 -6 2 3 -1 9 17 26 46 43 l49 27 0 -177
c0 -98 3 -174 7 -170 4 4 8 90 8 191 l0 184 -30 -20 c-172 -114 -469 -156
-728 -103 -188 39 -353 145 -388 251 -40 122 165 292 426 354 113 26 347 21
455 -11z m-893 -427 c-2 -16 -4 -3 -4 27 0 30 2 43 4 28 2 -16 2 -40 0 -55z
m1661 -61 l233 -118 -98 -27 c-160 -45 -253 -96 -348 -190 -111 -112 -117
-127 -129 -323 l-9 -160 -32 -21 c-41 -27 -100 -99 -120 -146 -22 -53 -20
-161 5 -211 25 -52 79 -108 153 -158 154 -105 332 -153 607 -165 250 -10 379
18 625 137 168 82 234 133 300 230 l50 72 3 234 3 233 312 -158 c446 -225 432
-216 451 -293 6 -28 6 -28 -431 -246 -241 -120 -607 -300 -813 -401 -732 -358
-1301 -639 -1800 -887 -763 -380 -776 -385 -828 -348 -39 27 -23 121 27 156
18 13 17 15 -27 38 -26 14 -76 41 -112 61 -36 20 -200 111 -365 201 -165 91
-388 214 -495 273 -107 59 -274 150 -370 202 -96 53 -267 146 -380 208 -378
208 -763 417 -959 522 l-194 104 -24 -23 c-24 -22 -58 -77 -51 -83 9 -7 206
-118 251 -141 29 -15 219 -120 422 -234 204 -114 422 -235 485 -270 63 -35
180 -99 260 -143 80 -44 170 -93 200 -110 96 -52 431 -237 535 -295 55 -30
154 -85 220 -122 306 -171 509 -280 520 -280 3 0 10 10 15 23 l9 22 0 -22 c1
-13 -4 -23 -10 -23 -8 0 -7 -6 2 -17 12 -14 10 -14 -21 2 -37 19 -373 203
-765 420 -126 70 -349 192 -495 272 -146 80 -294 162 -330 183 -36 21 -126 70
-200 110 -74 40 -286 157 -470 260 -184 102 -404 224 -488 270 -83 47 -152 90
-152 98 0 27 32 73 70 101 21 15 87 49 147 76 131 58 456 204 653 293 80 36
169 76 198 88 l52 24 0 -95 0 -94 -30 -16 c-44 -23 -135 -119 -159 -169 -62
-126 7 -271 173 -365 72 -41 226 -96 326 -118 122 -26 488 -26 610 0 173 36
294 87 424 177 89 62 145 119 190 194 51 86 57 128 48 391 -8 229 -8 230 -39
296 -53 113 -131 184 -290 264 -48 25 -81 45 -72 45 8 0 157 62 330 138 357
157 379 166 383 161 1 -2 0 -46 -3 -96 l-6 -93 -50 -41 c-105 -86 -144 -185
-114 -292 16 -60 115 -158 207 -205 175 -91 356 -128 617 -126 246 1 379 31
570 127 159 79 265 171 321 278 l29 54 -3 203 c-1 111 1 202 5 202 5 -1 113
-54 241 -118z m692 -261 c129 -38 217 -87 297 -167 109 -107 113 -119 113
-358 0 -226 -7 -254 -79 -319 -39 -35 -183 -111 -231 -122 l-25 -6 3 191 c3
171 5 190 20 190 9 0 52 18 94 40 l78 40 3 -183 2 -182 3 192 2 192 -86 -44
c-130 -67 -202 -80 -434 -80 -173 0 -204 3 -275 23 -167 48 -312 142 -346 225
l-14 32 -7 -30 c-4 -18 -6 -5 -3 33 6 75 29 123 87 179 82 80 193 133 349 168
98 22 351 14 449 -14z m-3447 -12 c96 -14 157 -34 247 -80 100 -51 169 -114
208 -187 l32 -60 0 -221 c0 -255 -3 -267 -86 -340 -48 -42 -165 -104 -216
-115 l-28 -6 0 195 c0 165 2 195 15 195 8 0 13 -6 11 -12 -1 -7 -1 -10 1 -6 3
4 3 10 1 12 -2 3 31 22 72 43 l75 38 5 -190 6 -190 2 201 2 200 -77 -38 c-113
-56 -206 -78 -358 -85 -291 -13 -528 61 -653 202 -23 26 -42 55 -43 64 -1 9
-5 6 -10 -9 -6 -18 -8 -10 -5 31 6 74 33 125 98 184 155 139 447 212 701 174z
m-806 -516 c-2 -16 -4 -3 -4 27 0 30 2 43 4 28 2 -16 2 -40 0 -55z m5545
-2122 c-9 -13 -60 -45 -112 -72 -117 -61 -789 -403 -1375 -699 -242 -123 -627
-318 -855 -435 -228 -117 -550 -281 -715 -365 -165 -84 -367 -189 -449 -232
-81 -44 -150 -77 -153 -74 -3 2 5 9 16 16 12 6 18 16 15 22 -4 7 -3 8 4 4 16
-10 154 62 146 76 -4 6 -3 8 4 4 14 -9 63 14 55 27 -3 6 -1 7 5 3 15 -9 59 13
59 29 0 9 -14 13 -45 12 -37 0 -41 -2 -23 -9 13 -4 27 -6 32 -2 5 3 9 0 9 -5
0 -6 -21 -11 -47 -12 -61 0 -140 -15 -103 -19 14 -2 31 -3 37 -3 7 1 11 -3 8
-7 -2 -4 -31 -7 -64 -7 -49 -1 -59 2 -54 14 5 12 7 12 14 1 7 -10 9 -9 9 5 0
10 3 16 8 14 4 -3 13 1 20 9 8 9 9 14 2 14 -6 0 -8 5 -5 10 3 6 -1 10 -10 10
-9 0 -13 4 -10 10 3 5 36 9 72 9 41 -1 61 -4 52 -10 -8 -5 -9 -9 -4 -9 18 0
40 19 32 27 -5 4 -53 8 -108 8 l-99 1 0 -28 c0 -16 6 -28 13 -28 7 0 5 -5 -5
-10 -13 -8 -15 -17 -8 -39 4 -16 7 -31 5 -33 -2 -2 -5 -20 -7 -41 -1 -20 -6
-37 -10 -37 -4 0 -8 413 -8 919 l0 919 358 177 c532 265 1506 745 2242 1106
162 79 468 230 680 335 l385 191 3 -886 c2 -834 1 -887 -16 -910z m-3832 135
c0 -2 -8 -10 -17 -17 -16 -13 -17 -12 -4 4 13 16 21 21 21 13z m385 -1874 c-3
-3 -11 0 -18 7 -9 10 -8 11 6 5 10 -3 15 -9 12 -12z m-67 -29 c-10 -2 -28 -2
-40 0 -13 2 -5 4 17 4 22 1 32 -1 23 -4z"/>
<path d="M8587 7053 c-10 -10 -8 -73 2 -73 5 0 11 7 15 15 3 8 11 15 18 15 7
0 0 -12 -16 -26 -34 -30 -31 -36 9 -18 17 7 23 13 16 14 -11 0 -12 3 -4 11 19
19 4 40 -18 28 -12 -6 -19 -6 -19 0 0 5 6 12 13 14 9 4 9 6 -1 6 -7 1 -10 6
-7 11 7 11 2 13 -8 3z"/>
<path d="M7745 6509 c-114 -15 -224 -48 -330 -99 -148 -72 -235 -152 -292
-268 -26 -54 -28 -66 -31 -222 l-4 -166 -27 -12 c-49 -22 -138 -111 -165 -164
-28 -57 -35 -151 -15 -205 74 -198 456 -353 870 -353 141 0 298 18 399 46 250
69 488 230 561 380 39 80 43 129 32 410 -9 211 -9 212 -42 278 -132 269 -538
428 -956 375z m281 -119 c121 -15 189 -35 292 -86 118 -58 206 -138 251 -227
l31 -64 0 -220 0 -219 -29 -45 c-27 -43 -85 -96 -141 -130 -29 -18 -156 -69
-170 -69 -6 0 -10 71 -10 190 0 150 3 190 13 190 7 0 52 20 100 44 l87 44 3
-181 2 -182 3 191 2 190 -88 -44 c-113 -56 -224 -81 -388 -89 -201 -9 -354 18
-502 88 -99 48 -196 134 -217 194 l-14 40 -1 -60 c-1 -51 -3 -56 -11 -35 -24
57 16 194 74 257 155 168 440 257 713 223z"/>
<path d="M8264 5446 c-3 -8 -4 -23 -2 -33 3 -11 6 -6 9 15 6 34 2 42 -7 18z"/>
<path d="M8260 5366 c0 -19 4 -23 20 -19 10 3 25 13 32 22 10 13 10 14 -2 4
-19 -18 -41 -16 -34 2 4 8 1 15 -5 15 -6 0 -11 -11 -11 -24z"/>
<path d="M6766 6525 c-8 -9 -19 -16 -23 -16 -15 -1 -16 -9 -2 -10 8 -1 3 -5
-11 -9 -20 -7 -21 -8 -5 -9 21 0 41 12 64 42 17 21 -2 23 -23 2z"/>
<path d="M6778 6483 c7 -3 16 -2 19 1 4 3 -2 6 -13 5 -11 0 -14 -3 -6 -6z"/>
<path d="M6691 6284 c0 -11 3 -14 6 -6 3 7 2 16 -1 19 -3 4 -6 -2 -5 -13z"/>
<path d="M6693 6215 c0 -22 2 -30 4 -17 2 12 2 30 0 40 -3 9 -5 -1 -4 -23z"/>
<path d="M6682 6152 c-8 -21 1 -22 43 -3 l40 18 -39 -1 c-22 -1 -41 -7 -44
-14z"/>
<path d="M11140 6210 c-9 -6 -10 -10 -3 -10 6 0 15 5 18 10 8 12 4 12 -15 0z"/>
<path d="M11251 4874 c0 -11 3 -14 6 -6 3 7 2 16 -1 19 -3 4 -6 -2 -5 -13z"/>
<path d="M10968 4683 c7 -3 16 -2 19 1 4 3 -2 6 -13 5 -11 0 -14 -3 -6 -6z"/>
<path d="M10905 4590 c-13 -6 -15 -9 -5 -9 8 0 22 4 30 9 18 12 2 12 -25 0z"/>
<path d="M11195 4550 c3 -5 11 -10 16 -10 6 0 7 5 4 10 -3 6 -11 10 -16 10 -6
0 -7 -4 -4 -10z"/>
<path d="M11095 4420 c-3 -6 1 -7 9 -4 18 7 21 14 7 14 -6 0 -13 -4 -16 -10z"/>
<path d="M10840 4290 c-9 -6 -10 -10 -3 -10 6 0 15 5 18 10 8 12 4 12 -15 0z"/>
<path d="M10780 4260 c-9 -6 -10 -10 -3 -10 6 0 15 5 18 10 8 12 4 12 -15 0z"/>
<path d="M10528 4223 c6 -2 18 -2 25 0 6 3 1 5 -13 5 -14 0 -19 -2 -12 -5z"/>
<path d="M10530 4135 c-14 -8 -20 -14 -14 -15 5 0 19 7 30 15 24 18 16 19 -16
0z"/>
<path d="M10368 4083 c7 -3 16 -2 19 1 4 3 -2 6 -13 5 -11 0 -14 -3 -6 -6z"/>
<path d="M9798 4073 c7 -3 16 -2 19 1 4 3 -2 6 -13 5 -11 0 -14 -3 -6 -6z"/>
<path d="M10226 3981 c-4 -5 3 -7 14 -4 23 6 26 13 6 13 -8 0 -17 -4 -20 -9z"/>
<path d="M10110 3920 c-9 -6 -10 -10 -3 -10 6 0 15 5 18 10 8 12 4 12 -15 0z"/>
<path d="M10058 3894 c-38 -20 -36 -28 2 -9 17 9 30 18 30 20 0 7 -1 6 -32
-11z"/>
<path d="M9898 3873 c7 -3 16 -2 19 1 4 3 -2 6 -13 5 -11 0 -14 -3 -6 -6z"/>
<path d="M9984 3854 c-18 -14 -18 -14 6 -3 31 14 36 19 24 19 -6 0 -19 -7 -30
-16z"/>
<path d="M9845 3830 c-3 -5 -1 -10 4 -10 6 0 11 5 11 10 0 6 -2 10 -4 10 -3 0
-8 -4 -11 -10z"/>
<path d="M9916 3823 c-4 -11 -1 -11 14 -3 24 13 25 17 5 17 -8 0 -16 -6 -19
-14z"/>
<path d="M9824 3774 c-18 -14 -18 -14 6 -3 31 14 36 19 24 19 -6 0 -19 -7 -30
-16z"/>
<path d="M9755 3748 c-5 -5 -19 -16 -30 -24 -15 -11 -11 -11 15 2 43 20 43 21
33 27 -4 2 -12 0 -18 -5z"/>
<path d="M9468 3723 c7 -3 16 -2 19 1 4 3 -2 6 -13 5 -11 0 -14 -3 -6 -6z"/>
<path d="M9670 3710 c8 -5 20 -10 25 -10 6 0 3 5 -5 10 -8 5 -19 10 -25 10 -5
0 -3 -5 5 -10z"/>
<path d="M9610 3666 c7 -7 13 -7 20 0 6 6 3 10 -10 10 -13 0 -16 -4 -10 -10z"/>
<path d="M9456 3621 c-3 -4 6 -6 19 -3 14 2 25 6 25 8 0 8 -39 4 -44 -5z"/>
<path d="M9491 3606 c-14 -8 -30 -12 -36 -10 -5 2 -16 -5 -23 -16 -12 -19 -9
-19 38 5 27 14 50 28 50 30 0 7 -1 6 -29 -9z"/>
<path d="M7642 3597 c-8 -10 -6 -13 8 -14 10 -1 21 5 24 13 7 18 -18 19 -32 1z"/>
<path d="M9298 3573 c6 -2 18 -2 25 0 6 3 1 5 -13 5 -14 0 -19 -2 -12 -5z"/>
<path d="M9287 3551 c-36 -6 -37 -7 -16 -19 11 -8 18 -9 14 -3 -4 7 3 11 17
11 13 0 30 5 38 10 17 11 11 11 -53 1z"/>
<path d="M7630 3540 c8 -5 20 -10 25 -10 6 0 3 5 -5 10 -8 5 -19 10 -25 10 -5
0 -3 -5 5 -10z"/>
<path d="M7638 3512 c-29 -6 -21 -18 12 -18 17 0 30 3 30 7 0 10 -22 16 -42
11z"/>
<path d="M9128 3513 c6 -2 18 -2 25 0 6 3 1 5 -13 5 -14 0 -19 -2 -12 -5z"/>
<path d="M9185 3510 c-3 -5 -2 -10 4 -10 5 0 13 5 16 10 3 6 2 10 -4 10 -5 0
-13 -4 -16 -10z"/>
<path d="M9300 3510 c-8 -5 -10 -10 -5 -10 6 0 17 5 25 10 8 5 11 10 5 10 -5
0 -17 -5 -25 -10z"/>
<path d="M9260 3490 c-9 -6 -10 -10 -3 -10 6 0 15 5 18 10 8 12 4 12 -15 0z"/>
<path d="M7620 3470 c0 -5 9 -10 19 -10 11 0 23 5 26 10 4 6 -5 10 -19 10 -14
0 -26 -4 -26 -10z"/>
<path d="M9200 3460 c-9 -6 -10 -10 -3 -10 6 0 15 5 18 10 8 12 4 12 -15 0z"/>
<path d="M7620 3439 c0 -5 9 -9 20 -9 11 0 20 4 20 8 0 4 -9 8 -20 9 -11 1
-20 -2 -20 -8z"/>
<path d="M8488 3433 c7 -3 16 -2 19 1 4 3 -2 6 -13 5 -11 0 -14 -3 -6 -6z"/>
<path d="M9125 3430 c3 -6 2 -10 -2 -10 -5 0 -18 -7 -29 -15 -15 -13 -13 -13
16 1 44 21 44 20 25 28 -9 3 -13 2 -10 -4z"/>
<path d="M9030 3420 c-8 -5 -10 -10 -5 -10 6 0 17 5 25 10 8 5 11 10 5 10 -5
0 -17 -5 -25 -10z"/>
<path d="M7620 3409 c0 -5 11 -9 25 -9 14 0 25 2 25 4 0 2 -11 6 -25 8 -14 3
-25 1 -25 -3z"/>
<path d="M7978 3413 c7 -3 16 -2 19 1 4 3 -2 6 -13 5 -11 0 -14 -3 -6 -6z"/>
<path d="M7625 3380 c3 -5 17 -10 31 -10 13 0 24 5 24 10 0 6 -14 10 -31 10
-17 0 -28 -4 -24 -10z"/>
<path d="M7888 3383 c6 -2 18 -2 25 0 6 3 1 5 -13 5 -14 0 -19 -2 -12 -5z"/>
<path d="M8665 3359 c-16 -6 -14 -8 13 -8 33 -1 41 4 20 12 -7 2 -22 1 -33 -4z"/>
<path d="M7620 3328 c0 -24 4 -28 30 -28 17 0 30 4 30 10 0 5 -10 9 -21 7 -12
-1 -24 4 -26 11 -4 9 2 11 21 6 20 -5 26 -2 26 10 0 12 -8 16 -30 14 -26 -2
-30 -6 -30 -30z"/>
<path d="M8960 3338 c-14 -6 -32 -10 -40 -9 -8 1 -21 -8 -28 -19 -7 -11 -11
-20 -9 -20 8 0 107 51 107 55 0 6 1 6 -30 -7z"/>
<path d="M7868 3323 c7 -3 16 -2 19 1 4 3 -2 6 -13 5 -11 0 -14 -3 -6 -6z"/>
<path d="M8658 3323 c7 -3 16 -2 19 1 4 3 -2 6 -13 5 -11 0 -14 -3 -6 -6z"/>
<path d="M8508 3313 c7 -3 16 -2 19 1 4 3 -2 6 -13 5 -11 0 -14 -3 -6 -6z"/>
<path d="M7645 3270 c3 -5 13 -10 21 -10 8 0 14 5 14 10 0 6 -9 10 -21 10 -11
0 -17 -4 -14 -10z"/>
<path d="M8193 3263 c9 -2 23 -2 30 0 6 3 -1 5 -18 5 -16 0 -22 -2 -12 -5z"/>
<path d="M7620 3240 c0 -5 14 -10 30 -10 17 0 30 5 30 10 0 6 -13 10 -30 10
-16 0 -30 -4 -30 -10z"/>
<path d="M7708 3223 c6 -2 18 -2 25 0 6 3 1 5 -13 5 -14 0 -19 -2 -12 -5z"/>
<path d="M7778 3223 c12 -2 30 -2 40 0 9 3 -1 5 -23 4 -22 0 -30 -2 -17 -4z"/>
<path d="M8513 3223 c9 -2 23 -2 30 0 6 3 -1 5 -18 5 -16 0 -22 -2 -12 -5z"/>
<path d="M8628 3223 c6 -2 18 -2 25 0 6 3 1 5 -13 5 -14 0 -19 -2 -12 -5z"/>
<path d="M7645 3210 l-30 -8 32 -1 c17 0 35 4 38 9 7 11 3 11 -40 0z"/>
<path d="M8094 3195 c-18 -14 -18 -14 4 -8 12 3 22 9 22 14 0 12 -3 11 -26 -6z"/>
<path d="M8477 3199 c7 -7 15 -10 18 -7 3 3 -2 9 -12 12 -14 6 -15 5 -6 -5z"/>
<path d="M8670 3189 l-25 -20 33 16 c17 8 32 18 32 20 0 10 -16 4 -40 -16z"/>
<path d="M7710 3190 c-8 -5 -10 -10 -5 -10 6 0 17 5 25 10 8 5 11 10 5 10 -5
0 -17 -5 -25 -10z"/>
<path d="M8528 3188 c4 -4 28 -4 52 1 l45 9 -52 -1 c-29 -1 -49 -5 -45 -9z"/>
<path d="M7620 3178 c0 -12 58 -10 65 2 4 7 -6 10 -29 8 -20 -1 -36 -6 -36
-10z"/>
<path d="M8615 3160 c-3 -6 1 -7 9 -4 18 7 21 14 7 14 -6 0 -13 -4 -16 -10z"/>
<path d="M7620 3146 c0 -6 14 -11 30 -11 17 0 30 3 30 7 0 4 12 8 28 11 15 2
1 3 -30 3 -35 0 -58 -4 -58 -10z"/>
<path d="M7964 3149 c-3 -5 9 -9 25 -9 17 0 31 2 31 4 0 8 -51 13 -56 5z"/>
<path d="M8418 3153 c6 -2 18 -2 25 0 6 3 1 5 -13 5 -14 0 -19 -2 -12 -5z"/>
<path d="M7778 3143 c12 -2 32 -2 45 0 12 2 2 4 -23 4 -25 0 -35 -2 -22 -4z"/>
<path d="M7868 3143 c7 -3 16 -2 19 1 4 3 -2 6 -13 5 -11 0 -14 -3 -6 -6z"/>
<path d="M8250 3146 c0 -2 16 -6 35 -8 19 -2 35 0 35 4 0 4 -16 8 -35 8 -19 0
-35 -2 -35 -4z"/>
<path d="M8098 3133 c7 -3 16 -2 19 1 4 3 -2 6 -13 5 -11 0 -14 -3 -6 -6z"/>
<path d="M8348 3133 c6 -2 18 -2 25 0 6 3 1 5 -13 5 -14 0 -19 -2 -12 -5z"/>
<path d="M7678 3122 l-58 -3 0 -39 c0 -38 2 -40 30 -40 19 0 30 5 30 14 0 8
12 19 28 24 23 8 19 9 -25 8 -29 -2 -53 1 -53 5 0 8 68 17 155 22 l50 2 -50 5
c-27 3 -76 4 -107 2z"/>
<path d="M8525 3119 c-8 -11 -55 -33 -67 -31 -5 1 -8 -2 -8 -8 0 -15 11 -12
65 20 28 16 42 30 33 30 -9 0 -20 -5 -23 -11z"/>
<path d="M7995 3110 c7 -11 93 -11 100 0 2 4 -21 8 -51 9 -37 1 -54 -1 -49 -9z"/>
<path d="M8426 3109 c4 -7 44 0 44 7 0 2 -11 3 -24 2 -14 -1 -23 -5 -20 -9z"/>
<path d="M8128 3103 c7 -3 16 -2 19 1 4 3 -2 6 -13 5 -11 0 -14 -3 -6 -6z"/>
<path d="M8378 3103 c12 -2 22 -8 22 -13 0 -5 10 -14 21 -21 21 -11 21 -11 3
15 -12 16 -28 25 -44 24 -23 -1 -24 -1 -2 -5z"/>
<path d="M7757 3079 c7 -7 15 -10 18 -7 3 3 -2 9 -12 12 -14 6 -15 5 -6 -5z"/>
<path d="M7808 3083 c7 -3 16 -2 19 1 4 3 -2 6 -13 5 -11 0 -14 -3 -6 -6z"/>
<path d="M7933 3083 c9 -2 23 -2 30 0 6 3 -1 5 -18 5 -16 0 -22 -2 -12 -5z"/>
<path d="M8030 3075 c-8 -9 -8 -15 -2 -15 12 0 26 19 19 26 -2 2 -10 -2 -17
-11z"/>
<path d="M8260 3080 c-18 -12 -2 -12 25 0 13 6 15 9 5 9 -8 0 -22 -4 -30 -9z"/>
<path d="M7780 3059 c-20 -6 -17 -7 18 -8 23 -1 42 1 42 3 0 9 -37 12 -60 5z"/>
<path d="M7704 3048 c-5 -7 -2 -9 8 -5 9 3 22 0 29 -6 11 -10 11 -9 0 6 -16
20 -27 22 -37 5z"/>
<path d="M7936 3052 c-2 -4 12 -9 32 -10 29 -1 33 1 17 8 -26 11 -43 12 -49 2z"/>
<path d="M8215 3050 c-3 -5 -3 -11 2 -11 4 -1 -5 -5 -22 -9 -30 -8 -30 -8 8
-9 31 -1 37 2 37 19 0 21 -15 27 -25 10z"/>
<path d="M8283 3044 c0 -9 8 -9 29 -2 35 13 35 15 0 14 -16 -1 -29 -6 -29 -12z"/>
<path d="M8368 3053 c22 -4 20 -7 -18 -25 -22 -11 -39 -22 -36 -25 5 -5 106
45 106 52 0 3 -17 4 -37 4 -25 -1 -30 -3 -15 -6z"/>
<path d="M8178 3043 c7 -3 16 -2 19 1 4 3 -2 6 -13 5 -11 0 -14 -3 -6 -6z"/>
<path d="M7778 3033 c6 -2 18 -2 25 0 6 3 1 5 -13 5 -14 0 -19 -2 -12 -5z"/>
<path d="M7820 3036 c0 -8 48 -12 66 -6 13 5 5 8 -23 8 -24 0 -43 -1 -43 -2z"/>
<path d="M8250 3029 c0 -5 5 -7 10 -4 6 3 10 8 10 11 0 2 -4 4 -10 4 -5 0 -10
-5 -10 -11z"/>
<path d="M7633 3023 c-7 -2 -13 -9 -13 -15 0 -6 6 -6 15 2 8 6 23 9 36 5 14
-5 19 -4 15 4 -7 11 -31 13 -53 4z"/>
<path d="M7715 3010 c-15 -5 -9 -8 22 -11 23 -3 40 -1 37 2 -7 11 -39 16 -59
9z"/>
<path d="M8028 3013 c-16 -2 -28 -9 -28 -14 0 -5 11 -7 25 -4 14 3 37 8 52 11
61 12 22 18 -49 7z"/>
<path d="M8210 2993 c14 -3 31 -10 38 -16 9 -7 16 -6 25 3 10 10 9 12 -5 7
-10 -3 -20 -2 -23 3 -4 6 -18 9 -33 9 l-27 -2 25 -4z"/>
<path d="M7620 2980 c0 -6 14 -9 30 -8 17 1 30 6 30 10 0 4 -13 8 -30 8 -16 0
-30 -5 -30 -10z"/>
<path d="M7748 2981 c-61 -9 -74 -22 -17 -17 24 2 52 4 62 5 9 1 17 6 17 11 0
6 -3 9 -7 9 -5 -1 -29 -5 -55 -8z"/>
<path d="M7870 2980 c-20 -6 -21 -8 -5 -8 11 0 29 3 40 8 25 11 -1 11 -35 0z"/>
<path d="M7946 2982 c-3 -5 11 -9 32 -10 29 0 33 1 17 8 -27 11 -43 12 -49 2z"/>
<path d="M8114 2979 c-3 -5 6 -9 20 -9 31 0 34 6 6 13 -11 3 -23 1 -26 -4z"/>
<path d="M8028 2973 c7 -3 16 -2 19 1 4 3 -2 6 -13 5 -11 0 -14 -3 -6 -6z"/>
<path d="M8210 2959 c0 -4 -11 -10 -25 -13 -14 -4 -25 -11 -25 -16 0 -6 18 -1
40 10 44 22 48 27 25 27 -8 0 -15 -4 -15 -8z"/>
<path d="M7620 2951 c0 -11 35 -21 85 -22 32 0 36 -2 20 -9 -19 -8 -19 -9 3
-9 12 -1 22 3 22 9 0 5 27 9 61 9 33 -1 63 2 66 5 6 6 -111 10 -169 6 -16 -1
-28 3 -28 9 0 6 -13 11 -30 11 -16 0 -30 -4 -30 -9z"/>
<path d="M7927 2949 c7 -7 15 -10 18 -7 3 3 -2 9 -12 12 -14 6 -15 5 -6 -5z"/>
<path d="M7970 2940 c0 -5 -10 -11 -22 -11 -18 -1 -19 -2 -5 -6 9 -2 15 -9 12
-14 -9 -13 2 -11 41 7 19 9 43 14 53 11 11 -3 22 1 24 7 7 18 -40 18 -73 1
-26 -14 -29 -14 -24 0 4 8 3 15 0 15 -3 0 -6 -4 -6 -10z"/>
<path d="M7632 2913 c-7 -6 -12 -20 -12 -30 0 -14 2 -15 9 -4 5 7 11 9 14 4 9
-14 94 -15 103 -1 5 8 -3 9 -29 5 -21 -3 -37 -2 -37 4 0 5 -8 10 -17 10 -10 1
-4 4 12 8 l30 7 -31 5 c-18 3 -35 0 -42 -8z"/>
<path d="M8098 2923 c7 -3 16 -2 19 1 4 3 -2 6 -13 5 -11 0 -14 -3 -6 -6z"/>
<path d="M7773 2903 c9 -2 23 -2 30 0 6 3 -1 5 -18 5 -16 0 -22 -2 -12 -5z"/>
<path d="M8038 2897 c-7 -8 -38 -14 -68 -15 -41 -2 -51 1 -40 9 12 8 11 9 -5
5 -12 -3 -52 -8 -90 -11 -38 -3 -71 -8 -74 -10 -4 -5 127 -9 204 -7 32 1 36 0
20 -7 -11 -5 -30 -10 -43 -10 -18 -1 -22 -5 -17 -20 4 -13 0 -23 -12 -30 -27
-15 -10 -13 21 3 15 7 27 18 27 22 0 5 8 8 16 7 17 -1 113 43 113 52 0 3 -12
3 -27 0 -27 -6 -27 -6 -9 9 11 9 15 16 9 16 -7 0 -18 -6 -25 -13z"/>
<path d="M7870 2833 c8 -3 21 -10 28 -16 7 -5 15 -7 19 -3 10 9 0 15 -33 20
-16 2 -22 1 -14 -1z"/>
<path d="M7716 2818 c4 -6 15 -8 25 -5 21 6 26 -8 7 -16 -7 -3 -3 -6 10 -6 20
-1 33 27 15 31 -30 6 -61 3 -57 -4z"/>
</g>
</svg>
